<svg width="136" height="73" viewBox="0 0 136 73" fill="none" xmlns="http://www.w3.org/2000/svg">
<path fill-rule="evenodd" clip-rule="evenodd" d="M136 73.0002C120.629 60.2221 95.8942 51.9326 68.0001 51.9326C40.106 51.9326 15.3716 60.2221 0 73.0001C10.1234 53.1629 36.7481 39 68.0001 39C99.252 39 125.877 53.1629 136 73.0002Z" fill="#00DD00"/>
<rect x="38" y="20" width="4" height="25" fill="#00DD00"/>
<rect x="86" y="27" width="4" height="25" fill="#00DD00"/>
<rect x="104" y="38" width="2" height="18" fill="#00DD00"/>
<rect x="73" y="30" width="2" height="18" fill="#00DD00"/>
<circle cx="40" cy="12" r="12" fill="#00DD00"/>
<circle cx="88" cy="18" r="12" fill="#00DD00"/>
<circle cx="105" cy="32" r="8" fill="#00DD00"/>
<circle cx="74" cy="26" r="8" fill="#00DD00"/>
<circle cx="23" cy="35" r="8" fill="#00DD00"/>
<circle cx="9" cy="47" r="4" fill="#00DD00"/>
</svg>
